<?xml version="1.0" encoding="UTF-8"?>
<svg version="1.1" xmlns="http://www.w3.org/2000/svg" width="520" height="237">
<path d="M0 0 C1.43889705 -0.01041829 1.43889705 -0.01041829 2.90686274 -0.02104706 C6.10632044 -0.03927492 9.3050331 -0.02906399 12.5045166 -0.01878357 C14.80483554 -0.02584447 17.10514983 -0.0345902 19.40545654 -0.04489136 C25.64560372 -0.06738432 31.88549721 -0.06444438 38.12566948 -0.05556989 C43.34376951 -0.05045457 48.5618221 -0.05775761 53.77991724 -0.06504196 C66.80438029 -0.08301481 79.82870228 -0.07663114 92.8531602 -0.05887216 C104.13249824 -0.04420269 115.41156923 -0.05876668 126.69087285 -0.08764232 C138.2987234 -0.11713519 149.90644027 -0.12747214 161.51432657 -0.11846012 C168.02054903 -0.11354628 174.52656441 -0.11566193 181.03276062 -0.13624763 C187.15935997 -0.15470349 193.28546724 -0.14852504 199.41204071 -0.12404823 C201.65000416 -0.11907035 203.88800573 -0.12245061 206.12593842 -0.13519669 C219.1129357 -0.20326082 230.04151535 0.66161515 242.18615723 5.5146637 C243.08909264 5.86713386 243.99202805 6.21960402 244.92232513 6.58275509 C247.07828362 7.45912536 249.12164913 8.44127619 251.18615723 9.5146637 C252.34437988 10.10634338 252.34437988 10.10634338 253.52600098 10.7099762 C262.86347381 15.87287587 270.56458502 23.215821 277.18615723 31.5146637 C277.84615723 31.8446637 278.50615723 32.1746637 279.18615723 32.5146637 C279.18615723 33.5046637 279.18615723 34.4946637 279.18615723 35.5146637 C279.84615723 35.5146637 280.50615723 35.5146637 281.18615723 35.5146637 C285.08229017 42.34588345 288.47178868 49.13210577 291.18615723 56.5146637 C291.57803223 57.5046637 291.96990723 58.4946637 292.37365723 59.5146637 C297.50198822 78.45003968 294.77739562 101.54554962 285.18615723 118.5146637 C281.87509745 123.80850926 278.42709243 128.92031723 274.18615723 133.5146637 C273.52615723 133.5146637 272.86615723 133.5146637 272.18615723 133.5146637 C271.85615723 134.5046637 271.52615723 135.4946637 271.18615723 136.5146637 C270.52615723 136.5146637 269.86615723 136.5146637 269.18615723 136.5146637 C268.96057129 137.1024762 268.73498535 137.6902887 268.50256348 138.2959137 C266.3638004 141.90071319 262.88515857 143.53394549 259.40100098 145.7334137 C257.04165583 147.31625043 257.04165583 147.31625043 256.37756348 149.7334137 C256.31439941 150.3212262 256.25123535 150.9090387 256.18615723 151.5146637 C256.84615723 151.5146637 257.50615723 151.5146637 258.18615723 151.5146637 C259.39112885 152.95393536 260.5915565 154.3974442 261.76037598 155.8662262 C263.95335318 158.40166833 266.61093636 160.3777783 269.18615723 162.5146637 C270.51949056 164.18133036 271.85282389 165.84799703 273.18615723 167.5146637 C274.15553223 168.3190387 275.12490723 169.1234137 276.12365723 169.9521637 C279.25535869 172.57256696 281.61635254 175.35182715 284.18615723 178.5146637 C285.03178223 179.3602887 285.87740723 180.2059137 286.74865723 181.0771637 C292.74027909 187.06878556 295.55350689 192.5438396 296.62365723 200.9521637 C295.70969793 208.39440371 293.10114586 214.72633956 287.18615723 219.5146637 C279.51405747 225.03857552 272.38905728 225.62630113 263.18615723 224.5146637 C256.38787267 221.69427226 251.50816706 217.36208877 247.18615723 211.5146637 C244.94952003 209.22099022 242.66293591 206.98218454 240.37561035 204.73927307 C238.37196687 202.7715873 236.37274866 200.79947304 234.37365723 198.8271637 C233.68078613 198.15105042 232.98791504 197.47493713 232.27404785 196.77833557 C231.61984863 196.13058167 230.96564941 195.48282776 230.29162598 194.81544495 C229.69503174 194.22932434 229.0984375 193.64320374 228.48376465 193.0393219 C227.18615723 191.5146637 227.18615723 191.5146637 227.18615723 189.5146637 C226.19615723 189.1846637 225.20615723 188.8546637 224.18615723 188.5146637 C221.99865723 186.5771637 221.99865723 186.5771637 220.18615723 184.5146637 C220.18615723 183.8546637 220.18615723 183.1946637 220.18615723 182.5146637 C219.19615723 182.1846637 218.20615723 181.8546637 217.18615723 181.5146637 C214.99865723 179.5771637 214.99865723 179.5771637 213.18615723 177.5146637 C213.18615723 176.8546637 213.18615723 176.1946637 213.18615723 175.5146637 C212.19615723 175.1846637 211.20615723 174.8546637 210.18615723 174.5146637 C207.99865723 172.5771637 207.99865723 172.5771637 206.18615723 170.5146637 C206.18615723 169.8546637 206.18615723 169.1946637 206.18615723 168.5146637 C205.52615723 168.5146637 204.86615723 168.5146637 204.18615723 168.5146637 C204.10365723 167.8959137 204.02115723 167.2771637 203.93615723 166.6396637 C203.68865723 165.9384137 203.44115723 165.2371637 203.18615723 164.5146637 C202.57643066 164.23235901 201.9667041 163.95005432 201.33850098 163.65919495 C198.63525262 162.22171443 197.6375076 160.64287033 195.99865723 158.0771637 C195.48947754 157.29470276 194.98029785 156.51224182 194.45568848 155.70606995 C190.76430905 149.33418115 191.41162664 140.68341315 192.18615723 133.5146637 C193.24398404 129.87653035 194.73614338 127.3820873 197.18615723 124.5146637 C197.69791504 123.88302307 198.20967285 123.25138245 198.73693848 122.6006012 C203.92656962 117.19233814 210.26538246 115.56714397 217.28381348 113.6552887 C219.97181298 112.92068014 222.45225561 112.01412326 224.99475098 110.8740387 C228.18615723 109.5146637 228.18615723 109.5146637 231.18615723 109.5146637 C231.51615723 108.5246637 231.84615723 107.5346637 232.18615723 106.5146637 C233.33084473 105.6484137 233.33084473 105.6484137 234.49865723 104.7646637 C237.69430989 102.08923356 239.35642749 99.17412317 241.18615723 95.5146637 C241.76365723 94.5040387 242.34115723 93.4934137 242.93615723 92.4521637 C245.58193782 85.91120611 245.22440817 77.98831809 243.23693848 71.33888245 C240.97442594 66.0644447 238.46025114 62.30028973 234.18615723 58.5146637 C234.18615723 57.8546637 234.18615723 57.1946637 234.18615723 56.5146637 C233.54678223 56.2671637 232.90740723 56.0196637 232.24865723 55.7646637 C229.18615723 54.5146637 229.18615723 54.5146637 227.25832266 53.53465599 C221.51492396 50.69432046 216.87341523 49.946169 210.51539612 50.02932739 C209.58371201 50.02535397 208.65202791 50.02138055 207.69211096 50.01728672 C204.59224971 50.00874395 201.49323341 50.02847389 198.39343262 50.04811096 C196.16205228 50.04756185 193.93067175 50.04518487 191.69929504 50.04112244 C186.90463473 50.035955 182.1102035 50.04299241 177.31556892 50.05937386 C169.72991889 50.08452711 162.14449406 50.07819874 154.55882263 50.06689453 C143.92066144 50.05380403 133.28256986 50.05102413 122.64440918 50.06031799 C121.63318785 50.06119241 121.63318785 50.06119241 120.60153782 50.06208449 C113.08113704 50.06881212 105.5607406 50.077885 98.04034424 50.08839417 C95.31298838 50.09213435 92.58563243 50.0957939 89.85827637 50.09938049 C89.18525992 50.10027141 88.51224347 50.10116232 87.81883258 50.10208023 C76.57936402 50.11639287 65.33999018 50.11098538 54.10052294 50.09145778 C46.56396447 50.0796553 39.02792009 50.09126662 31.49141514 50.12071049 C26.79824941 50.13398909 22.1052819 50.12653195 17.41212273 50.11343002 C15.24096541 50.11157745 13.06978094 50.11825425 10.89868164 50.13423347 C-10.88848643 50.28579398 -10.88848643 50.28579398 -20.43884277 42.3271637 C-21.81384277 40.5146637 -21.81384277 40.5146637 -21.81384277 38.5146637 C-22.47384277 38.5146637 -23.13384277 38.5146637 -23.81384277 38.5146637 C-27.43380567 30.67141075 -28.15448545 23.05795276 -25.68884277 14.7021637 C-19.44991085 4.09597942 -12.33225747 -0.11495683 0 0 Z " fill="#FDFEFE" transform="translate(29.8138427734375,5.4853363037109375)"/>
<path d="M0 0 C0.91297852 -0.00846954 1.82595703 -0.01693909 2.76660156 -0.02566528 C5.78415904 -0.04905328 8.80120636 -0.05005622 11.81884766 -0.04882812 C13.92811281 -0.05593396 16.03737604 -0.06363357 18.14663696 -0.07189941 C22.57339843 -0.08535227 26.99998162 -0.08691173 31.42675781 -0.08105469 C37.06300577 -0.07518992 42.69838299 -0.10561257 48.33446312 -0.14617157 C52.69634501 -0.17220992 57.05802258 -0.17491083 61.41997147 -0.17127991 C63.49532871 -0.17295938 65.57069661 -0.18248725 67.64597702 -0.20042419 C80.06248517 -0.29584786 90.35250547 0.49310701 101.85791016 5.41992188 C102.66408783 5.75237915 103.4702655 6.08483643 104.3008728 6.42736816 C110.21238416 8.97296275 114.96259756 13.33117791 119.85791016 17.41992188 C120.70095703 18.05800781 121.54400391 18.69609375 122.41259766 19.35351562 C132.50118371 27.87885432 140.23299873 42.36646671 141.85791016 55.41992188 C142.90469245 71.90674302 142.25511086 85.92593626 133.37548828 100.171875 C131.43454492 103.44699516 130.76570667 104.95944363 131.52587891 108.75585938 C132.75969732 111.22349621 133.84921583 112.59383612 135.85791016 114.41992188 C135.85791016 115.07992187 135.85791016 115.73992187 135.85791016 116.41992188 C136.84791016 116.74992187 137.83791016 117.07992187 138.85791016 117.41992188 C140.16551129 119.55666101 141.27780821 121.60996083 142.35791016 123.85742188 C142.94572266 125.03175781 143.53353516 126.20609375 144.13916016 127.41601562 C148.21864157 136.53871708 149.3819449 144.75231407 149.29541016 154.73242188 C149.28928711 155.92778564 149.28316406 157.12314941 149.27685547 158.35473633 C149.12830503 166.71641184 148.40691689 173.75701461 144.85791016 181.41992188 C144.55755859 182.14179688 144.25720703 182.86367187 143.94775391 183.60742188 C141.39683677 189.26140272 137.81724727 194.66091569 133.85791016 199.41992188 C133.19791016 199.41992188 132.53791016 199.41992188 131.85791016 199.41992188 C131.19791016 200.73992187 130.53791016 202.05992187 129.85791016 203.41992188 C129.19791016 203.41992188 128.53791016 203.41992188 127.85791016 203.41992188 C127.52791016 204.40992188 127.19791016 205.39992187 126.85791016 206.41992188 C126.19791016 206.41992188 125.53791016 206.41992188 124.85791016 206.41992188 C124.52791016 207.40992188 124.19791016 208.39992187 123.85791016 209.41992188 C120.38366939 212.0515524 116.60917036 214.20672912 112.85791016 216.41992188 C112.20435547 216.81695312 111.55080078 217.21398437 110.87744141 217.62304688 C97.35928024 225.14308355 82.4844238 225.03161629 67.49072266 224.98632812 C65.35895519 224.99157501 63.22719004 224.99785536 61.09542847 225.00511169 C56.65611741 225.01545269 52.21712825 225.01104072 47.77783203 224.99633789 C42.10538135 224.97908212 36.43393727 225.00276264 30.76159859 225.03782749 C26.37079229 225.05982965 21.9802264 225.05835442 17.58938217 225.05006218 C15.49791223 225.04924571 13.40642411 225.05605048 11.31500626 225.07083321 C8.39134478 225.08834949 5.46948888 225.07368196 2.54589844 225.05102539 C1.26925072 225.06856369 1.26925072 225.06856369 -0.03318787 225.0864563 C-7.88757769 224.96327729 -13.74018222 221.75174465 -19.51708984 216.54492188 C-24.48986964 211.08867738 -25.71162455 205.41407044 -25.49365234 198.20117188 C-24.61516785 191.25138342 -21.56066797 185.85330398 -16.14208984 181.41992188 C-8.86579727 176.21411906 -3.34161112 175.27364253 5.60791016 175.26220703 C6.47843018 175.25712631 7.3489502 175.25204559 8.24584961 175.24681091 C10.131012 175.23613372 12.01618686 175.22750321 13.90136719 175.22069168 C16.88564622 175.20887455 19.86978237 175.18941616 22.85400391 175.16757202 C31.33702857 175.10603786 39.82003636 175.0518631 48.30322266 175.01855469 C53.49623228 174.99761783 58.68897739 174.96232811 63.88183594 174.91779709 C65.85934336 174.90363546 67.83689754 174.89491429 69.81445312 174.89174271 C72.57922099 174.8868375 75.34328516 174.86369143 78.10791016 174.83642578 C78.92364502 174.83943192 79.73937988 174.84243805 80.57983398 174.84553528 C85.24062161 174.77722956 87.94713305 174.19375034 91.85791016 171.41992188 C92.51791016 171.41992188 93.17791016 171.41992188 93.85791016 171.41992188 C94.54565421 170.09733716 95.20502389 168.76005685 95.85791016 167.41992188 C96.39416016 166.34742188 96.93041016 165.27492187 97.48291016 164.16992188 C100.29152469 156.51006407 98.70830901 150.74951892 95.85791016 143.41992188 C95.19791016 143.41992188 94.53791016 143.41992188 93.85791016 143.41992188 C93.85791016 142.75992188 93.85791016 142.09992188 93.85791016 141.41992188 C92.97103516 141.13117188 92.08416016 140.84242188 91.17041016 140.54492188 C87.85791016 139.41992188 87.85791016 139.41992188 85.55810547 138.36450195 C82.3480371 137.24155851 79.74026594 137.18043086 76.34228516 137.18164062 C75.09060547 137.16552734 73.83892578 137.14941406 72.54931641 137.1328125 C69.93738624 137.11598639 67.32535505 137.11063791 64.71337891 137.1171875 C56.82699359 136.99181419 51.28546792 136.16051624 44.85791016 131.41992188 C44.85791016 130.75992188 44.85791016 130.09992188 44.85791016 129.41992188 C44.19791016 129.41992188 43.53791016 129.41992188 42.85791016 129.41992188 C37.81375095 121.6014751 36.68094123 114.63767849 37.85791016 105.41992188 C39.46245663 99.77263539 43.07326071 94.83465064 47.85791016 91.41992188 C54.8082751 87.58994329 61.54103727 88.00809006 69.32080078 88.06835938 C76.13720222 87.96080274 80.5547846 86.80032224 85.85791016 82.41992188 C89.7087398 78.44073125 90.73968271 73.90958765 91.17041016 68.48242188 C90.99931573 62.87907936 89.07485469 58.78898448 85.35791016 54.60742188 C80.75376268 50.57879283 77.77810318 50.13285629 71.87329102 50.16455078 C70.65314804 50.1591201 70.65314804 50.1591201 69.40835571 50.15357971 C67.64048828 50.14668353 65.87259954 50.14418069 64.10471916 50.14552689 C61.29977443 50.14649228 58.49521282 50.13354566 55.69032288 50.11654663 C47.71472198 50.07029652 39.73915806 50.04569546 31.76342773 50.0390625 C26.88388752 50.03402601 22.00474332 50.00966126 17.1253376 49.97373581 C15.27197214 49.9639806 13.41855187 49.96158234 11.56516838 49.9669075 C0.43881403 49.99735677 -8.19311845 49.58930471 -17.95458984 43.73242188 C-24.11440836 37.22061373 -25.86801071 31.14258993 -25.7355957 22.23999023 C-25.37516313 15.42886289 -23.3773036 11.62125905 -18.64990234 6.94335938 C-17.14208984 5.60742187 -17.14208984 5.60742187 -14.14208984 3.41992188 C-13.09461075 2.62273743 -13.09461075 2.62273743 -12.02597046 1.80944824 C-7.98123562 -0.13940695 -4.43592928 -0.01518457 0 0 Z " fill="#FEFEFE" transform="translate(363.14208984375,5.580078125)"/>
<path d="M0 0 C7.96339907 5.80067738 11.43685229 11.36186746 13 21 C13.26863335 24.7732821 13.27385285 28.53032668 13.25878906 32.31201172 C13.2622937 33.40756378 13.26579834 34.50311584 13.26940918 35.63186646 C13.278167 39.23120578 13.27239748 42.83034638 13.265625 46.4296875 C13.26697355 48.946381 13.26891567 51.46307424 13.27142334 53.97976685 C13.27436672 59.24678549 13.27029592 64.51375314 13.26074219 69.78076172 C13.2498712 75.84343801 13.25337805 81.9059796 13.264395 87.96865261 C13.27461732 93.83179994 13.27346786 99.69489669 13.26763153 105.55804825 C13.26630306 108.0386062 13.26791446 110.51916762 13.27259064 112.99972153 C13.27770594 116.4763048 13.26987503 119.95263467 13.25878906 123.42919922 C13.26283752 124.44149597 13.26688599 125.45379272 13.27105713 126.49676514 C13.21302431 136.38897793 12.78415932 145.36782076 6 153 C5.34 153 4.68 153 4 153 C3.67 153.99 3.34 154.98 3 156 C-4.10212989 160.97149092 -11.54718814 161.05319675 -20 160 C-27.11426003 157.57219658 -32.17596723 152.94691245 -36.1033783 146.60177612 C-38.77195205 141.1036922 -38.56803487 135.69287708 -38.53344727 129.68408203 C-38.54206284 128.47002686 -38.55067841 127.25597168 -38.55955505 126.00512695 C-38.57829276 122.69477359 -38.57913575 119.38542684 -38.57023358 116.07509851 C-38.56509949 113.30198085 -38.57243596 110.5289516 -38.57970566 107.75584304 C-38.59667016 101.20808006 -38.59317482 94.66055031 -38.57641602 88.11279297 C-38.55950581 81.38020781 -38.57532118 74.64827158 -38.6076389 67.9157573 C-38.63441872 62.11501461 -38.64158808 56.31447287 -38.63312382 50.51367462 C-38.6282179 47.05812479 -38.6302816 43.6029649 -38.65091133 40.14746475 C-38.67284312 36.28962484 -38.65377515 32.43255415 -38.63110352 28.57470703 C-38.64279572 27.4450351 -38.65448792 26.31536316 -38.66653442 25.15145874 C-38.57715071 17.64721053 -36.9278652 12.39792318 -33 6 C-32.34 6 -31.68 6 -31 6 C-30.67 5.01 -30.34 4.02 -30 3 C-21.27973603 -3.85163598 -9.81560752 -5.50678768 0 0 Z " fill="#FEFEFE" transform="translate(99,70)"/>
<path d="M0 0 C6.87778924 5.130459 11.14225362 9.63302531 12.64761925 18.17388535 C13.2651969 23.12689493 13.23777923 28.03937234 13.18286133 33.02392578 C13.17821869 34.18296417 13.17357605 35.34200256 13.16879272 36.53616333 C13.15052143 40.33936169 13.11698622 44.14223348 13.08203125 47.9453125 C13.06815495 49.93003222 13.05428454 51.91475208 13.04115504 53.89947689 C12.99977333 60.12790923 12.94754312 66.35618527 12.88842773 72.58447266 C12.82781319 78.99080211 12.7856043 85.39706751 12.75240308 91.8035928 C12.72313299 97.32584571 12.68241996 102.84793475 12.63263911 108.37004077 C12.60310283 111.6588051 12.57906623 114.94743653 12.56351662 118.23630142 C12.54444329 121.90277281 12.50664014 125.56859893 12.46411133 129.23486328 C12.46155083 130.85128723 12.46155083 130.85128723 12.4589386 132.50036621 C12.36403605 138.68990772 11.54889593 143.34305489 9 149 C8.34 149 7.68 149 7 149 C6.67 150.32 6.34 151.64 6 153 C5.34 153 4.68 153 4 153 C4 153.66 4 154.32 4 155 C-2.49982467 160.05541919 -9.10554142 160.99085371 -17.11328125 160.5390625 C-23.95535949 159.59011095 -28.54313689 157.01180139 -32.90234375 151.66796875 C-36.10734791 146.99997445 -38.1197888 143.65610361 -38.15390015 137.9606781 C-38.16250061 136.89392349 -38.17110107 135.82716888 -38.17996216 134.72808838 C-38.18635208 132.96474152 -38.18635208 132.96474152 -38.19287109 131.16577148 C-38.20104858 129.93147903 -38.20922607 128.69718658 -38.21765137 127.42549133 C-38.24254571 123.32402879 -38.25918602 119.22260323 -38.2734375 115.12109375 C-38.27879789 113.70786088 -38.2841754 112.29462808 -38.28956985 110.88139534 C-38.31120551 104.99916054 -38.32993889 99.11692849 -38.34119225 93.23466396 C-38.35740738 84.81466947 -38.39051722 76.39513824 -38.44759309 67.97531837 C-38.48637786 62.05077031 -38.50583532 56.12634567 -38.51111281 50.20167404 C-38.51475641 46.66607809 -38.52666931 43.13097611 -38.55921555 39.59551811 C-38.59507221 35.64353979 -38.5909036 31.69213528 -38.58349609 27.73999023 C-38.59990143 26.57859528 -38.61630676 25.41720032 -38.63320923 24.22061157 C-38.56816723 15.72534753 -36.51028107 10.12285954 -31.0078125 3.66015625 C-22.23858903 -3.78094831 -10.33158705 -5.92151081 0 0 Z " fill="#FEFEFE" transform="translate(197,70)"/>
<path d="M0 0 C4.8631443 5.22940621 6.97563399 11.56294552 7.04418945 18.60571289 C7.06344231 20.32879417 7.06344231 20.32879417 7.08308411 22.08668518 C7.09047104 23.33038376 7.09785797 24.57408234 7.10546875 25.85546875 C7.1135405 27.13707382 7.12161224 28.41867889 7.12992859 29.73912048 C7.14494836 32.45685696 7.15478737 35.17456741 7.16235352 37.89233398 C7.173366 41.34985032 7.2077071 44.80671381 7.24752522 48.26400089 C7.28020154 51.5861286 7.28448935 54.90819291 7.29296875 58.23046875 C7.31047684 59.45999771 7.32798492 60.68952667 7.34602356 61.95631409 C7.32033645 72.23606727 5.26117634 80.61382366 -2.1328125 88.0078125 C-8.86205664 93.19493819 -14.88220612 93.51215991 -23.1328125 93.0078125 C-31.18944711 91.39648558 -36.3346554 87.62148851 -41.1328125 81.0078125 C-44.9549337 74.30927935 -44.60037924 67.68389768 -44.6015625 60.11328125 C-44.60867725 58.75718375 -44.61637813 57.40108921 -44.62463379 56.04499817 C-44.638035 53.20984524 -44.63966786 50.37497053 -44.63378906 47.53979492 C-44.62790497 43.9319358 -44.6584485 40.32542799 -44.69890594 36.7178297 C-44.72494112 33.91824839 -44.7276461 31.11898536 -44.72401428 28.3192997 C-44.72649932 26.35082713 -44.75108453 24.38242161 -44.77624512 22.41410828 C-44.70556503 13.16316323 -42.85565325 6.55275274 -36.95703125 -0.6484375 C-25.44562718 -10.58149549 -11.43042479 -10.30894915 0 0 Z " fill="#FDFDFD" transform="translate(382.1328125,74.9921875)"/>
</svg>
